PathFileType	4	(X/Y/Z)	s08c0203.trc
DataRate	CameraRate	NumFrames	NumMarkers	Units	OrigDataRate	OrigDataStartFrame	OrigNumFrames
200	200	5	50	mm	200	500	2000
Frame#	Time	racr			lacr			c7			jug			rlel			rdr			llel			ldr			s2			lic			ric			lasi			rasi			rpsi			lpsi			rgt			lgt			rth1			rth2			rth3			rth4			rlfc			rmfc			rsh1			rsh2			rsh3			rsh4			rlmal			rmmal			rcal			rtoe			rmt5			lth1			lth2			lth4			lth3			llfc			lmfc			llmal			lmmal			lcal			lmt5			lsh1			lsh2			lsh3			lsh4			ltoe			SBIKE			LBIKE			RBIKE			
		X1	Y1	Z1	X2	Y2	Z2	X3	Y3	Z3	X4	Y4	Z4	X5	Y5	Z5	X6	Y6	Z6	X7	Y7	Z7	X8	Y8	Z8	X9	Y9	Z9	X10	Y10	Z10	X11	Y11	Z11	X12	Y12	Z12	X13	Y13	Z13	X14	Y14	Z14	X15	Y15	Z15	X16	Y16	Z16	X17	Y17	Z17	X18	Y18	Z18	X19	Y19	Z19	X20	Y20	Z20	X21	Y21	Z21	X22	Y22	Z22	X23	Y23	Z23	X24	Y24	Z24	X25	Y25	Z25	X26	Y26	Z26	X27	Y27	Z27	X28	Y28	Z28	X29	Y29	Z29	X30	Y30	Z30	X31	Y31	Z31	X32	Y32	Z32	X33	Y33	Z33	X34	Y34	Z34	X35	Y35	Z35	X36	Y36	Z36	X37	Y37	Z37	X38	Y38	Z38	X39	Y39	Z39	X40	Y40	Z40	X41	Y41	Z41	X42	Y42	Z42	X43	Y43	Z43	X44	Y44	Z44	X45	Y45	Z45	X46	Y46	Z46	X47	Y47	Z47	X48	Y48	Z48	X49	Y49	Z49	X50	Y50	Z50	
500	2.5000	571.184743	1375.800486	-64.044430	574.209356	1346.359403	-400.350493	531.846349	1447.974725	-227.945542	511.966682	1286.471231	-219.750471	567.868397	1130.817320	68.057993	754.197213	933.893801	-48.740660	532.381780	1080.948362	-515.199225	741.655677	925.179889	-427.806142	-5.577489	1197.486062	-213.179749	149.038957	1206.791519	-373.113815	159.171750	1210.622486	-55.066987	179.125538	1157.766716	-336.480744	183.283003	1151.082813	-94.328308	24.418773	1239.189101	-160.324837	22.771818	1243.340811	-256.944185	100.618929	1092.439480	-23.729415	92.104115	1081.689671	-401.311761	242.212960	998.498238	-29.974484	325.121005	967.229874	-38.595467	378.610604	898.859833	-48.640190	344.500146	995.386816	-52.547692	451.520380	820.382707	-71.658651	428.820118	811.533578	-180.366276	345.856854	746.193830	-40.337404	297.389752	673.004185	-60.737326	220.844541	633.566925	-63.736024	318.936960	655.906244	-91.217394	125.507898	564.625008	-67.646997	150.539054	567.340313	-156.599652	52.957242	598.830646	-115.029189	242.750558	367.002119	-106.706156	161.060225	417.292730	-41.531589	159.708617	958.255115	-415.137941	220.868642	895.790761	-413.012121	251.900591	913.162575	-404.675049	242.011011	809.490722	-410.840598	290.654432	692.181461	-391.358607	283.317269	665.019504	-290.941929	255.868195	273.382450	-406.473035	291.296358	304.815756	-333.490188	190.609499	245.759893	-369.986270	401.640204	198.797900	-422.680355	277.032275	562.661189	-422.438866	292.609086	479.492375	-407.778233	267.148797	394.925251	-410.700195	312.264968	481.330495	-373.217669	480.720034	238.678234	-356.366418	-205.496386	916.952645	-234.544413	-9.270458	79.725687	-427.046491	-8.936665	79.958796	-28.803315	
501	2.5050	569.510658	1373.917477	-59.921468	574.578539	1348.970252	-396.978093	531.590382	1448.315627	-223.534998	510.973494	1287.084051	-217.569317	566.269802	1128.907122	71.394277	754.944598	935.192576	-47.837208	533.766977	1084.635754	-514.466481	741.804133	926.073522	-427.945771	-7.199528	1197.467051	-215.726587	150.881209	1206.377048	-374.849315	156.318466	1211.129317	-56.768168	179.602951	1156.286876	-338.059717	181.917184	1152.168915	-95.635762	23.118484	1238.470319	-164.401036	23.176892	1242.489095	-260.841411	99.104651	1093.544761	-25.661719	92.282805	1079.790268	-402.876761	242.627728	1001.915610	-31.106531	326.195958	972.693247	-39.536015	381.367125	905.596566	-49.254502	345.008113	1001.252134	-53.499652	455.810952	829.142765	-72.115208	433.940319	819.595166	-181.402626	350.472037	754.907342	-41.305606	302.085215	681.493455	-61.459244	225.655260	641.892928	-64.428000	323.710072	664.087194	-91.697053	130.497590	572.530347	-68.280469	156.369910	575.532362	-156.677694	57.145275	605.577992	-115.629426	250.654273	376.873110	-107.106621	168.228976	425.954716	-41.919687	156.894783	955.482776	-416.980198	216.561216	891.587459	-415.077438	247.994845	908.231594	-406.638068	235.683528	804.792209	-412.909820	281.603512	686.800285	-393.150084	274.754962	659.250052	-293.900809	249.737411	267.996003	-407.088770	285.746135	299.535713	-334.293645	184.979291	241.970464	-370.137267	395.039028	190.606898	-422.617988	268.022002	557.424243	-424.259670	284.446628	474.287756	-409.534561	259.746938	389.426785	-412.067733	304.203386	476.316060	-374.985333	482.779694	235.624478	-364.540741	-205.302240	916.993445	-235.122724	-9.008571	79.570775	-426.782237	-8.936580	79.998716	-28.844793	
502	2.5100	567.983183	1372.462316	-55.023939	575.095725	1351.506628	-393.249083	531.421818	1448.428653	-218.971792	510.625091	1287.461385	-214.971951	564.570912	1126.850083	74.761611	755.172471	935.852993	-47.156464	534.923015	1088.195307	-513.126154	741.875950	927.092570	-428.258424	-7.885272	1197.008988	-219.223872	152.680275	1206.169420	-376.279790	153.546086	1211.701204	-58.634354	180.045512	1154.614742	-339.478635	180.541375	1153.400950	-96.846602	21.914488	1238.096523	-168.445549	23.532572	1241.885918	-264.588944	97.159964	1094.523331	-27.758455	92.029179	1078.242754	-404.416687	243.064157	1005.856325	-31.817421	327.117046	978.408745	-40.410657	383.853695	912.502694	-50.000363	345.523342	1007.708628	-53.460902	459.969099	837.589664	-72.816280	438.727105	827.698969	-182.202855	354.814990	763.562159	-42.271292	306.986375	689.827316	-61.750336	230.264420	650.279654	-64.986445	328.530605	672.270499	-91.971021	135.584479	579.818524	-68.888309	161.567899	583.669059	-156.851906	61.330178	611.648313	-115.941701	259.169838	386.795196	-107.278523	175.816759	434.100199	-42.258339	153.723819	953.356234	-418.839397	211.958521	888.119074	-417.344874	243.786872	904.028474	-408.793024	229.174058	800.881866	-415.431204	283.322608	688.932628	-407.296367	264.172174	655.793969	-294.329347	243.291556	263.160810	-407.367032	279.752656	294.940510	-334.914958	179.073950	238.908936	-370.262745	387.972710	182.879254	-422.515121	258.720300	552.645884	-425.987374	276.079180	469.748322	-411.332661	251.841952	384.833636	-413.851433	296.152867	471.772001	-376.766880	467.449733	217.126498	-352.936623	-200.304634	920.210000	-231.109756	-9.027113	79.592979	-426.814657	-8.952553	80.024111	-28.871393	
503	2.5150	566.749883	1370.860115	-50.254021	575.174066	1353.194296	-387.783873	531.241501	1448.409220	-214.380311	509.961654	1287.769513	-212.239414	562.804257	1124.780374	78.087233	755.149370	936.399820	-46.625293	535.733591	1092.069889	-512.923575	741.842467	928.370052	-428.733769	-8.376920	1196.748937	-222.838779	154.490213	1205.886790	-377.373196	150.903526	1212.532513	-60.512571	180.323187	1152.703425	-340.933209	178.951665	1154.593711	-98.232358	20.781632	1237.904801	-172.287894	23.396621	1241.632166	-268.179889	95.265487	1095.714373	-29.637627	91.393173	1077.054059	-405.979771	242.652568	1009.409052	-33.586078	327.794397	984.147178	-40.705463	385.851966	919.509710	-50.821069	345.345838	1013.428877	-55.052801	463.880286	845.682082	-73.948606	443.012768	835.812275	-183.296154	358.898374	772.177856	-43.199294	310.937076	698.066831	-62.598977	234.959689	658.193232	-65.373784	333.379631	680.230463	-91.970659	140.723077	586.487609	-69.318770	166.295253	590.430037	-157.434758	65.588441	616.992932	-116.171105	267.824053	395.764038	-108.762607	184.077935	442.171709	-42.406578	150.377033	951.841356	-420.717082	207.263836	885.217599	-419.767100	239.413557	900.489436	-411.288559	222.639449	797.747896	-418.227807	274.363192	684.787676	-409.413809	253.302557	653.428431	-294.008483	236.663599	258.991104	-407.601637	273.871751	290.805887	-335.699303	172.995485	236.673602	-370.208398	380.503986	175.489299	-422.403438	249.316600	548.488932	-427.877989	267.626340	465.585657	-413.015290	243.966147	380.636259	-415.215047	288.053499	468.152609	-378.979169	460.759382	207.923342	-352.981413	-200.251171	920.208508	-231.314468	-9.048012	79.442903	-426.703459	-8.986322	80.057569	-28.902701	
504	2.5200	565.042860	1368.944653	-46.143942	575.878806	1355.465678	-383.783674	530.870311	1448.054466	-209.788157	509.834542	1287.666110	-209.958286	561.127957	1122.652031	81.273585	755.183703	936.885902	-45.760366	536.911565	1095.577496	-511.650959	741.797988	929.962348	-429.784121	-8.878090	1196.624465	-226.175272	156.182039	1205.673649	-378.313756	148.206763	1213.316894	-62.278006	181.015285	1151.576055	-344.459742	177.391358	1156.037528	-99.518910	19.733287	1237.982660	-176.064518	23.170754	1241.638149	-271.565896	93.341092	1097.247526	-31.344369	90.401623	1076.158514	-407.476017	242.390207	1013.489655	-35.282064	327.822106	989.734180	-41.612086	387.579560	926.300424	-51.685830	345.174326	1019.367745	-55.847755	467.037239	854.067878	-74.098766	446.799407	843.809656	-184.190500	362.891112	780.567005	-44.170294	315.265321	706.179863	-63.151445	239.570055	665.809562	-65.650140	338.109424	687.898561	-92.059319	146.030945	592.512085	-69.594690	171.803517	596.888849	-157.485573	69.022592	621.135574	-117.199981	277.389491	405.782535	-108.374416	192.383858	449.282325	-42.668902	146.932981	950.684452	-422.594537	202.536612	882.981947	-422.391986	235.030711	897.520635	-413.845546	216.190956	795.187080	-420.997994	265.623776	681.364892	-411.561042	243.879734	650.930611	-294.719125	229.876898	255.498151	-407.870438	267.816220	287.479289	-336.471093	166.758149	235.247592	-370.059197	372.565350	168.727125	-422.380807	239.976156	544.806195	-429.630506	259.070178	462.376688	-414.986228	235.967518	377.095268	-416.453929	280.081884	465.156001	-381.286990	453.684143	199.269960	-352.919886	-200.262002	920.145359	-231.468311	-9.058821	79.490833	-426.822550	-9.024020	80.096278	-28.928204	
